<mxfile host="app.diagrams.net" modified="2021-03-20T03:43:40.737Z" agent="5.0 (Windows)" etag="5s381aON3pvfQLfWnWjS" version="14.4.9" type="github">
  <diagram id="R2lEEEUBdFMjLlhIrx00" name="Page-1">
    <mxGraphModel dx="782" dy="1579" grid="0" gridSize="10" guides="1" tooltips="1" connect="1" arrows="1" fold="1" page="1" pageScale="1" pageWidth="850" pageHeight="1100" math="0" shadow="0" extFonts="Permanent Marker^https://fonts.googleapis.com/css?family=Permanent+Marker">
      <root>
        <mxCell id="0" />
        <mxCell id="1" parent="0" />
        <mxCell id="0wRd3D0yRxtHmawpK9mJ-1" value="Description" style="whiteSpace=wrap;html=1;" parent="1" vertex="1">
          <mxGeometry x="175.5" y="-930" width="145" height="50" as="geometry" />
        </mxCell>
        <mxCell id="1D16kicb6Td9H_PxM9Pi-22" style="edgeStyle=orthogonalEdgeStyle;rounded=0;orthogonalLoop=1;jettySize=auto;html=1;exitX=0.5;exitY=1;exitDx=0;exitDy=0;entryX=0.5;entryY=0;entryDx=0;entryDy=0;" parent="1" source="0wRd3D0yRxtHmawpK9mJ-3" target="0wRd3D0yRxtHmawpK9mJ-4" edge="1">
          <mxGeometry relative="1" as="geometry" />
        </mxCell>
        <mxCell id="0wRd3D0yRxtHmawpK9mJ-3" value="Extra" style="rounded=1;whiteSpace=wrap;html=1;" parent="1" vertex="1">
          <mxGeometry x="193" y="-845" width="110" height="50" as="geometry" />
        </mxCell>
        <mxCell id="0wRd3D0yRxtHmawpK9mJ-4" value="Contain" style="rhombus;whiteSpace=wrap;html=1;" parent="1" vertex="1">
          <mxGeometry x="181" y="-760" width="130" height="80" as="geometry" />
        </mxCell>
        <mxCell id="0wRd3D0yRxtHmawpK9mJ-28" value="" style="edgeStyle=orthogonalEdgeStyle;rounded=0;orthogonalLoop=1;jettySize=auto;html=1;" parent="1" source="0wRd3D0yRxtHmawpK9mJ-5" target="0wRd3D0yRxtHmawpK9mJ-4" edge="1">
          <mxGeometry relative="1" as="geometry" />
        </mxCell>
        <mxCell id="0wRd3D0yRxtHmawpK9mJ-29" value="" style="edgeStyle=orthogonalEdgeStyle;rounded=0;orthogonalLoop=1;jettySize=auto;html=1;" parent="1" source="0wRd3D0yRxtHmawpK9mJ-5" target="0wRd3D0yRxtHmawpK9mJ-12" edge="1">
          <mxGeometry relative="1" as="geometry" />
        </mxCell>
        <mxCell id="0wRd3D0yRxtHmawpK9mJ-5" value="Order-details" style="rounded=0;whiteSpace=wrap;html=1;" parent="1" vertex="1">
          <mxGeometry x="167.5" y="-630" width="120.25" height="60" as="geometry" />
        </mxCell>
        <mxCell id="0wRd3D0yRxtHmawpK9mJ-6" value="&lt;div&gt;Product Id&lt;/div&gt;" style="ellipse;whiteSpace=wrap;html=1;" parent="1" vertex="1">
          <mxGeometry x="33" y="-710" width="100" height="60" as="geometry" />
        </mxCell>
        <mxCell id="0wRd3D0yRxtHmawpK9mJ-7" value="Price" style="ellipse;whiteSpace=wrap;html=1;" parent="1" vertex="1">
          <mxGeometry x="344" y="-860" width="90" height="60" as="geometry" />
        </mxCell>
        <mxCell id="0wRd3D0yRxtHmawpK9mJ-9" value="Sales Id" style="ellipse;whiteSpace=wrap;html=1;" parent="1" vertex="1">
          <mxGeometry x="43" y="-568" width="100" height="50" as="geometry" />
        </mxCell>
        <mxCell id="0wRd3D0yRxtHmawpK9mJ-10" value="Contain" style="rhombus;whiteSpace=wrap;html=1;" parent="1" vertex="1">
          <mxGeometry x="323.5" y="-640" width="120" height="80" as="geometry" />
        </mxCell>
        <mxCell id="1D16kicb6Td9H_PxM9Pi-19" value="" style="edgeStyle=orthogonalEdgeStyle;rounded=0;orthogonalLoop=1;jettySize=auto;html=1;" parent="1" source="0wRd3D0yRxtHmawpK9mJ-12" target="0wRd3D0yRxtHmawpK9mJ-13" edge="1">
          <mxGeometry relative="1" as="geometry">
            <Array as="points">
              <mxPoint x="223" y="-370" />
              <mxPoint x="223" y="-370" />
            </Array>
          </mxGeometry>
        </mxCell>
        <mxCell id="0wRd3D0yRxtHmawpK9mJ-12" value="Contain" style="rhombus;whiteSpace=wrap;html=1;" parent="1" vertex="1">
          <mxGeometry x="163.75" y="-500" width="117.5" height="80" as="geometry" />
        </mxCell>
        <mxCell id="0wRd3D0yRxtHmawpK9mJ-13" value="Product" style="rounded=1;whiteSpace=wrap;html=1;" parent="1" vertex="1">
          <mxGeometry x="167.5" y="-360" width="120" height="60" as="geometry" />
        </mxCell>
        <mxCell id="0wRd3D0yRxtHmawpK9mJ-14" value="Price" style="ellipse;whiteSpace=wrap;html=1;" parent="1" vertex="1">
          <mxGeometry x="331" y="-365" width="105" height="70" as="geometry" />
        </mxCell>
        <mxCell id="0wRd3D0yRxtHmawpK9mJ-15" value="Description" style="ellipse;whiteSpace=wrap;html=1;" parent="1" vertex="1">
          <mxGeometry x="38" y="-365" width="100" height="70" as="geometry" />
        </mxCell>
        <mxCell id="0wRd3D0yRxtHmawpK9mJ-16" value="Model" style="ellipse;whiteSpace=wrap;html=1;" parent="1" vertex="1">
          <mxGeometry x="173.75" y="-240" width="107.5" height="60" as="geometry" />
        </mxCell>
        <mxCell id="1D16kicb6Td9H_PxM9Pi-4" value="" style="edgeStyle=orthogonalEdgeStyle;rounded=0;orthogonalLoop=1;jettySize=auto;html=1;" parent="1" source="0wRd3D0yRxtHmawpK9mJ-17" target="0wRd3D0yRxtHmawpK9mJ-21" edge="1">
          <mxGeometry relative="1" as="geometry">
            <Array as="points">
              <mxPoint x="506" y="-455" />
            </Array>
          </mxGeometry>
        </mxCell>
        <mxCell id="0wRd3D0yRxtHmawpK9mJ-17" value="Cart" style="rounded=0;whiteSpace=wrap;html=1;" parent="1" vertex="1">
          <mxGeometry x="493" y="-634" width="110" height="60" as="geometry" />
        </mxCell>
        <mxCell id="1D16kicb6Td9H_PxM9Pi-3" style="edgeStyle=orthogonalEdgeStyle;rounded=0;orthogonalLoop=1;jettySize=auto;html=1;exitX=0.5;exitY=1;exitDx=0;exitDy=0;entryX=0.5;entryY=0;entryDx=0;entryDy=0;" parent="1" source="0wRd3D0yRxtHmawpK9mJ-18" target="0wRd3D0yRxtHmawpK9mJ-17" edge="1">
          <mxGeometry relative="1" as="geometry" />
        </mxCell>
        <mxCell id="0wRd3D0yRxtHmawpK9mJ-18" value="Customer Id" style="ellipse;whiteSpace=wrap;html=1;" parent="1" vertex="1">
          <mxGeometry x="471" y="-792" width="100" height="60" as="geometry" />
        </mxCell>
        <mxCell id="0wRd3D0yRxtHmawpK9mJ-19" value="Date" style="ellipse;whiteSpace=wrap;html=1;" parent="1" vertex="1">
          <mxGeometry x="609" y="-886" width="110" height="70" as="geometry" />
        </mxCell>
        <mxCell id="0wRd3D0yRxtHmawpK9mJ-20" value="Sales total" style="ellipse;whiteSpace=wrap;html=1;" parent="1" vertex="1">
          <mxGeometry x="615" y="-750" width="110" height="60" as="geometry" />
        </mxCell>
        <mxCell id="1D16kicb6Td9H_PxM9Pi-7" style="edgeStyle=orthogonalEdgeStyle;rounded=0;orthogonalLoop=1;jettySize=auto;html=1;exitX=0.5;exitY=1;exitDx=0;exitDy=0;entryX=0.583;entryY=0;entryDx=0;entryDy=0;entryPerimeter=0;" parent="1" source="0wRd3D0yRxtHmawpK9mJ-21" target="0wRd3D0yRxtHmawpK9mJ-22" edge="1">
          <mxGeometry relative="1" as="geometry">
            <Array as="points">
              <mxPoint x="595" y="-327" />
            </Array>
          </mxGeometry>
        </mxCell>
        <mxCell id="0wRd3D0yRxtHmawpK9mJ-21" value="Place" style="rhombus;whiteSpace=wrap;html=1;" parent="1" vertex="1">
          <mxGeometry x="562" y="-507" width="110" height="90" as="geometry" />
        </mxCell>
        <mxCell id="0wRd3D0yRxtHmawpK9mJ-22" value="Customer" style="rounded=0;whiteSpace=wrap;html=1;" parent="1" vertex="1">
          <mxGeometry x="562" y="-370" width="120" height="60" as="geometry" />
        </mxCell>
        <mxCell id="0wRd3D0yRxtHmawpK9mJ-23" value="customer Id" style="ellipse;whiteSpace=wrap;html=1;" parent="1" vertex="1">
          <mxGeometry x="453" y="-300" width="105" height="70" as="geometry" />
        </mxCell>
        <mxCell id="0wRd3D0yRxtHmawpK9mJ-24" value="Contact" style="ellipse;whiteSpace=wrap;html=1;" parent="1" vertex="1">
          <mxGeometry x="658" y="-292" width="110" height="70" as="geometry" />
        </mxCell>
        <mxCell id="0wRd3D0yRxtHmawpK9mJ-26" value="Name" style="ellipse;whiteSpace=wrap;html=1;" parent="1" vertex="1">
          <mxGeometry x="555" y="-230" width="120" height="80" as="geometry" />
        </mxCell>
        <mxCell id="0wRd3D0yRxtHmawpK9mJ-27" value="" style="endArrow=classic;html=1;exitX=1;exitY=0.5;exitDx=0;exitDy=0;" parent="1" source="0wRd3D0yRxtHmawpK9mJ-10" edge="1">
          <mxGeometry width="50" height="50" relative="1" as="geometry">
            <mxPoint x="450" y="-640" as="sourcePoint" />
            <mxPoint x="450" y="-600" as="targetPoint" />
            <Array as="points">
              <mxPoint x="510" y="-600" />
              <mxPoint x="450" y="-600" />
            </Array>
          </mxGeometry>
        </mxCell>
        <mxCell id="1D16kicb6Td9H_PxM9Pi-5" value="" style="endArrow=none;html=1;entryX=0.5;entryY=0;entryDx=0;entryDy=0;exitX=0.5;exitY=1;exitDx=0;exitDy=0;" parent="1" source="0wRd3D0yRxtHmawpK9mJ-10" target="0wRd3D0yRxtHmawpK9mJ-14" edge="1">
          <mxGeometry width="50" height="50" relative="1" as="geometry">
            <mxPoint x="370" y="-550" as="sourcePoint" />
            <mxPoint x="420" y="-600" as="targetPoint" />
            <Array as="points" />
          </mxGeometry>
        </mxCell>
        <mxCell id="1D16kicb6Td9H_PxM9Pi-11" value="" style="endArrow=none;html=1;exitX=0.364;exitY=0;exitDx=0;exitDy=0;exitPerimeter=0;entryX=1;entryY=1;entryDx=0;entryDy=0;" parent="1" source="0wRd3D0yRxtHmawpK9mJ-24" target="0wRd3D0yRxtHmawpK9mJ-22" edge="1">
          <mxGeometry width="50" height="50" relative="1" as="geometry">
            <mxPoint x="370" y="-380" as="sourcePoint" />
            <mxPoint x="750" y="-280" as="targetPoint" />
          </mxGeometry>
        </mxCell>
        <mxCell id="1D16kicb6Td9H_PxM9Pi-12" value="" style="endArrow=none;html=1;entryX=0;entryY=1;entryDx=0;entryDy=0;exitX=0.686;exitY=0.029;exitDx=0;exitDy=0;exitPerimeter=0;" parent="1" source="0wRd3D0yRxtHmawpK9mJ-23" target="0wRd3D0yRxtHmawpK9mJ-22" edge="1">
          <mxGeometry width="50" height="50" relative="1" as="geometry">
            <mxPoint x="370" y="-170" as="sourcePoint" />
            <mxPoint x="420" y="-220" as="targetPoint" />
          </mxGeometry>
        </mxCell>
        <mxCell id="1D16kicb6Td9H_PxM9Pi-13" value="" style="endArrow=none;html=1;exitX=0.5;exitY=0;exitDx=0;exitDy=0;" parent="1" edge="1" source="0wRd3D0yRxtHmawpK9mJ-26">
          <mxGeometry width="50" height="50" relative="1" as="geometry">
            <mxPoint x="614.5" y="-207" as="sourcePoint" />
            <mxPoint x="614" y="-312" as="targetPoint" />
            <Array as="points">
              <mxPoint x="614" y="-252" />
              <mxPoint x="614" y="-278" />
            </Array>
          </mxGeometry>
        </mxCell>
        <mxCell id="1D16kicb6Td9H_PxM9Pi-14" value="" style="endArrow=none;html=1;exitX=0.5;exitY=0;exitDx=0;exitDy=0;entryX=0.5;entryY=1;entryDx=0;entryDy=0;" parent="1" source="0wRd3D0yRxtHmawpK9mJ-16" target="0wRd3D0yRxtHmawpK9mJ-13" edge="1">
          <mxGeometry width="50" height="50" relative="1" as="geometry">
            <mxPoint x="221" y="-250" as="sourcePoint" />
            <mxPoint x="228" y="-310" as="targetPoint" />
          </mxGeometry>
        </mxCell>
        <mxCell id="1D16kicb6Td9H_PxM9Pi-15" value="" style="endArrow=none;html=1;exitX=1;exitY=0.5;exitDx=0;exitDy=0;entryX=0;entryY=0.5;entryDx=0;entryDy=0;" parent="1" source="0wRd3D0yRxtHmawpK9mJ-15" target="0wRd3D0yRxtHmawpK9mJ-13" edge="1">
          <mxGeometry width="50" height="50" relative="1" as="geometry">
            <mxPoint x="370" y="-170" as="sourcePoint" />
            <mxPoint x="420" y="-220" as="targetPoint" />
          </mxGeometry>
        </mxCell>
        <mxCell id="1D16kicb6Td9H_PxM9Pi-18" value="" style="endArrow=none;html=1;entryX=0;entryY=0.5;entryDx=0;entryDy=0;" parent="1" target="0wRd3D0yRxtHmawpK9mJ-14" edge="1">
          <mxGeometry width="50" height="50" relative="1" as="geometry">
            <mxPoint x="288" y="-335" as="sourcePoint" />
            <mxPoint x="420" y="-220" as="targetPoint" />
          </mxGeometry>
        </mxCell>
        <mxCell id="1D16kicb6Td9H_PxM9Pi-20" value="" style="endArrow=none;html=1;exitX=0.97;exitY=0.3;exitDx=0;exitDy=0;exitPerimeter=0;entryX=0;entryY=0.5;entryDx=0;entryDy=0;" parent="1" source="0wRd3D0yRxtHmawpK9mJ-9" target="0wRd3D0yRxtHmawpK9mJ-5" edge="1">
          <mxGeometry width="50" height="50" relative="1" as="geometry">
            <mxPoint x="370" y="-580" as="sourcePoint" />
            <mxPoint x="420" y="-630" as="targetPoint" />
          </mxGeometry>
        </mxCell>
        <mxCell id="1D16kicb6Td9H_PxM9Pi-21" value="" style="endArrow=none;html=1;exitX=0.97;exitY=0.717;exitDx=0;exitDy=0;exitPerimeter=0;entryX=0;entryY=0.5;entryDx=0;entryDy=0;" parent="1" source="0wRd3D0yRxtHmawpK9mJ-6" target="0wRd3D0yRxtHmawpK9mJ-5" edge="1">
          <mxGeometry width="50" height="50" relative="1" as="geometry">
            <mxPoint x="370" y="-580" as="sourcePoint" />
            <mxPoint x="420" y="-630" as="targetPoint" />
          </mxGeometry>
        </mxCell>
        <mxCell id="1D16kicb6Td9H_PxM9Pi-25" value="" style="endArrow=none;html=1;entryX=0;entryY=0.5;entryDx=0;entryDy=0;" parent="1" target="0wRd3D0yRxtHmawpK9mJ-7" edge="1">
          <mxGeometry width="50" height="50" relative="1" as="geometry">
            <mxPoint x="304" y="-830" as="sourcePoint" />
            <mxPoint x="420" y="-630" as="targetPoint" />
          </mxGeometry>
        </mxCell>
        <mxCell id="1D16kicb6Td9H_PxM9Pi-26" value="" style="endArrow=none;html=1;exitX=1;exitY=0;exitDx=0;exitDy=0;" parent="1" source="0wRd3D0yRxtHmawpK9mJ-18" target="0wRd3D0yRxtHmawpK9mJ-19" edge="1">
          <mxGeometry width="50" height="50" relative="1" as="geometry">
            <mxPoint x="370" y="-580" as="sourcePoint" />
            <mxPoint x="420" y="-630" as="targetPoint" />
          </mxGeometry>
        </mxCell>
        <mxCell id="1D16kicb6Td9H_PxM9Pi-27" value="" style="endArrow=none;html=1;exitX=0.5;exitY=0;exitDx=0;exitDy=0;entryX=0.5;entryY=1;entryDx=0;entryDy=0;" parent="1" source="0wRd3D0yRxtHmawpK9mJ-20" target="0wRd3D0yRxtHmawpK9mJ-19" edge="1">
          <mxGeometry width="50" height="50" relative="1" as="geometry">
            <mxPoint x="370" y="-580" as="sourcePoint" />
            <mxPoint x="420" y="-630" as="targetPoint" />
          </mxGeometry>
        </mxCell>
        <mxCell id="TuBZcKReP0QBGSLIMtZ5-2" value="" style="endArrow=none;html=1;exitX=0.5;exitY=0;exitDx=0;exitDy=0;entryX=0.5;entryY=1;entryDx=0;entryDy=0;" edge="1" parent="1" source="0wRd3D0yRxtHmawpK9mJ-3" target="0wRd3D0yRxtHmawpK9mJ-1">
          <mxGeometry width="50" height="50" relative="1" as="geometry">
            <mxPoint x="370" y="-890" as="sourcePoint" />
            <mxPoint x="420" y="-940" as="targetPoint" />
          </mxGeometry>
        </mxCell>
        <mxCell id="TuBZcKReP0QBGSLIMtZ5-5" value="" style="endArrow=classic;html=1;" edge="1" parent="1">
          <mxGeometry width="50" height="50" relative="1" as="geometry">
            <mxPoint x="323" y="-600" as="sourcePoint" />
            <mxPoint x="290" y="-600" as="targetPoint" />
          </mxGeometry>
        </mxCell>
      </root>
    </mxGraphModel>
  </diagram>
</mxfile>
